<?xml version="1.0" encoding="UTF-8" standalone="no"?>
<svg
   xmlns:dc="http://purl.org/dc/elements/1.1/"
   xmlns:cc="http://creativecommons.org/ns#"
   xmlns:rdf="http://www.w3.org/1999/02/22-rdf-syntax-ns#"
   xmlns:svg="http://www.w3.org/2000/svg"
   xmlns="http://www.w3.org/2000/svg"
   xmlns:sodipodi="http://sodipodi.sourceforge.net/DTD/sodipodi-0.dtd"
   xmlns:inkscape="http://www.inkscape.org/namespaces/inkscape"
   width="703"
   height="509"
   viewBox="0 0 703 509"
   fill="none"
   version="1.1"
   id="svg328"
   sodipodi:docname="Logo.svg"
   inkscape:version="0.92.4 (5da689c313, 2019-01-14)">
  <metadata
     id="metadata332">
    <rdf:RDF>
      <cc:Work
         rdf:about="">
        <dc:format>image/svg+xml</dc:format>
        <dc:type
           rdf:resource="http://purl.org/dc/dcmitype/StillImage" />
      </cc:Work>
    </rdf:RDF>
  </metadata>
  <sodipodi:namedview
     pagecolor="#ffffff"
     bordercolor="#666666"
     borderopacity="1"
     objecttolerance="10"
     gridtolerance="10"
     guidetolerance="10"
     inkscape:pageopacity="0"
     inkscape:pageshadow="2"
     inkscape:window-width="1920"
     inkscape:window-height="1017"
     id="namedview330"
     showgrid="false"
     inkscape:zoom="0.80353635"
     inkscape:cx="376.00465"
     inkscape:cy="231.02364"
     inkscape:window-x="-8"
     inkscape:window-y="-8"
     inkscape:window-maximized="1"
     inkscape:current-layer="svg328" />
  <g
     clip-path="url(#clip0_6_544)"
     id="g235"
     transform="matrix(0.77354184,0,0,0.77354184,0,57.26721)">
    <mask
       id="mask0_6_544"
       maskUnits="userSpaceOnUse"
       x="0"
       y="54"
       width="907"
       height="395">
      <rect
         y="54.245899"
         width="906.45801"
         height="394.659"
         id="rect172"
         x="0"
         style="fill:url(#paint0_linear_6_544)" />
    </mask>
    <g
       mask="url(#mask0_6_544)"
       id="g177">
      <path
         d="M 792.848,106.079 741.613,88.9638 530.612,89.6242 494.086,76.503 463.182,89.3412 331.12,88.9795 278.793,64.9855 H 202.707 L 190.938,88.9717 H 124.624 L 0,287.433 138.728,444.023 h 629.3 L 906.756,287.433 792.84,106.071 Z m -28.02,330.845 h -622.9 L 8.85231,286.71 128.563,96.0708 h 66.817 l 11.761,-23.9861 h 70.103 l 52.312,23.9861 135.033,0.3695 29.678,-12.335 35.11,12.618 211.088,-0.6603 47.713,15.936 109.726,174.695 -133.076,150.214 z"
         id="path175"
         style="fill:url(#paint1_linear_6_544)"
         inkscape:connector-curvature="0" />
    </g>
    <path
       d="M 897.912,286.709 764.828,436.915 h -622.9 L 8.85211,286.709 128.563,96.0701 h 66.817 l 11.761,-23.9862 h 70.103 l 52.32,23.9862 135.025,0.3773 29.678,-12.335 35.11,12.6181 211.088,-0.6604 47.713,15.9439 z"
       id="path179"
       style="fill:url(#paint2_linear_6_544)"
       inkscape:connector-curvature="0" />
    <path
       d="M 897.894,286.709 788.184,112.014 740.455,96.0778 529.383,96.7225 494.273,84.1044 464.579,96.4395 329.554,96.0778 277.242,72.0917 H 207.147 L 195.386,96.0778 H 128.577 L 8.85815,286.709 H 88.9142 l 60.3388,44.851 h 97.721 l 14.631,-44.851 h 63.389 l 14.568,-63.46 h 14.458 l 19.528,-8.506 -4.096,43.066 53.995,28.9 z"
       id="path181"
       inkscape:connector-curvature="0"
       style="fill:#4a357d" />
    <path
       d="m 51.2505,263.274 h 68.2005 l 11.722,-22.485 h -30.244 l 21.399,-37.516 35.064,-12.768 11.077,-21.226 -33.373,11.611 17.76,-31.14 -10.464,-15.81 h 19.489 25.016 l 7.524,-14.426 h -52.886 z"
       id="path183"
       inkscape:connector-curvature="0"
       style="fill:#ffffff" />
    <path
       d="m 221.764,95.5193 -39.592,80.7867 48.004,28.491 18.836,9.733 -28.506,15.48 -20.118,52.43 h -32.289 l 34.529,-79.82 -25.794,-15.425 -48.767,99.49 28.924,21.439 h 72.98 l 36.156,-110.882 -49.411,-27.194 26.597,-61.478 h 23.773 l 16.18,6.8 -22.886,10.684 -15.621,40.732 26.628,14.308 24.34,-74.647 -23.633,-10.9277 z"
       id="path185"
       inkscape:connector-curvature="0"
       style="fill:#ffffff" />
    <path
       d="m 310.766,119.513 -41.29,143.759 h 36.848 l 14.576,-63.46 h 28.239 l 35.079,-15.275 6.502,-52.784 -27.076,-12.24 h -52.886 z m 47.351,30.652 -5.66,31.329 h -27.343 l 10.92,-47.563 h 25.016 l 18.459,7.508 -21.392,8.719 z"
       id="path187"
       inkscape:connector-curvature="0"
       style="fill:#ffffff" />
    <path
       d="m 406.145,119.513 -11.887,124.993 35.064,18.766 h 68.2 l -9.065,-131.519 -29.418,-12.24 h -52.886 z m 53.389,44.23 0.881,77.037 h -30.244 l 4.017,-106.849 h 25.016 l 19.222,7.508 -18.884,22.304 z"
       id="path189"
       inkscape:connector-curvature="0"
       style="fill:#ffffff" />
    <path
       d="m 508.623,131.808 14.269,131.464 h 36.848 l -10.543,-63.46 h 28.239 l 13.648,63.46 h 36.856 l -16.533,-60.653 -21.691,-9.183 16.762,-8.899 -17.729,-65.024 h -52.885 z m 64.883,49.686 h -27.344 l -5.173,-31.163 -21.336,-8.884 18.608,-7.508 h 25.016 l 10.229,47.563 z"
       id="path191"
       inkscape:connector-curvature="0"
       style="fill:#ffffff" />
    <path
       d="m 602.421,133.939 h 24.63 l 43.955,129.333 h 36.856 L 662.673,149.56 636.863,133.766 h 43.774 L 674.3,119.513 h -76.085 z"
       id="path193"
       inkscape:connector-curvature="0"
       style="fill:#ffffff" />
    <path
       d="m 803.901,181.094 -31.093,-49.506 -36.164,-12.075 h -52.886 l 26.352,56.793 75.182,28.491 20.535,35.991 h -30.252 l -19.898,-38.169 -40.519,-15.425 26.588,57.312 45.559,18.766 h 68.2 l -41.47,-66.03 -75.347,-27.194 -10.559,-20.252 -27.744,-15.857 h 44.49 l 18.734,32.846 z"
       id="path195"
       inkscape:connector-curvature="0"
       style="fill:#ffffff" />
    <path
       d="m 495.507,102.287 c -3.861,3.766 -8.232,7.257 -13.035,10.425 5.251,3.2 10.244,6.847 14.906,10.88 3.954,-4.033 8.309,-7.68 12.995,-10.88 -5.362,-3.168 -10.346,-6.659 -14.866,-10.425 z"
       id="path197"
       inkscape:connector-curvature="0"
       style="fill:#e2d45c" />
    <path
       d="M 92.8089,245.505 114.94,206.7 c -8.208,0.935 -16.3449,1.894 -24.411,2.893 l -30.7473,48.962 h 56.8093 l 6.8,-13.05 z"
       id="path199"
       style="fill:url(#paint3_linear_6_544)"
       inkscape:connector-curvature="0" />
    <path
       d="m 251.482,194.568 c -8.789,0.574 -17.524,1.187 -26.203,1.84 l 7.186,4.261 23.609,12.193 4.355,-13.373 z m -27.201,38.75 -20.645,53.838 h -42.713 l 35.739,-82.612 -8.6,-5.141 c -4.183,0.362 -8.357,0.731 -12.508,1.116 l -41.518,84.71 24.513,18.177 h 67.996 L 254.8,216.754 Z"
       id="path201"
       style="fill:url(#paint4_linear_6_544)"
       inkscape:connector-curvature="0" />
    <path
       d="m 361.745,189.183 -13.577,5.912 h -31.015 l -14.576,63.46 h -26.832 l 19.112,-66.55 c 21.997,-1.155 44.301,-2.099 66.888,-2.822 z"
       id="path203"
       style="fill:url(#paint5_linear_6_544)"
       inkscape:connector-curvature="0" />
    <path
       d="m 492.467,258.555 h -61.958 l -31.258,-16.721 5.118,-53.767 c 7.665,-0.157 15.354,-0.283 23.074,-0.385 l -2.17,57.823 h 39.914 l -0.66,-58.13 c 3.529,-0.008 7.067,-0.015 10.613,-0.015 4.151,0 8.294,0.007 12.421,0.023 z"
       id="path205"
       style="fill:url(#paint6_linear_6_544)"
       inkscape:connector-curvature="0" />
    <path
       d="m 621.77,258.555 h -26.872 l -13.648,-63.46 h -37.618 l 10.542,63.46 h -27.052 l -7.696,-70.921 c 23.019,0.283 45.794,0.794 68.294,1.517 l -8.97,4.765 28.711,12.154 z"
       id="path207"
       style="fill:url(#paint7_linear_6_544)"
       inkscape:connector-curvature="0" />
    <path
       d="m 674.893,193.082 c -7.689,-0.448 -15.417,-0.873 -23.184,-1.266 l 22.681,66.739 h 26.525 z"
       id="path209"
       style="fill:url(#paint8_linear_6_544)"
       inkscape:connector-curvature="0" />
    <path
       d="m 375.776,369.061 v -9.701 l -26.8,9.969 h -0.055 v 9.953 h 0.055 l 26.8,9.968 v -9.717 l -13.734,-5.251 z"
       id="path211"
       inkscape:connector-curvature="0"
       style="clip-rule:evenodd;fill:#996dff;fill-rule:evenodd" />
    <path
       d="m 531.016,388.747 v -9.701 l 13.726,-5.22 -13.726,-5.22 v -9.702 l 26.761,9.961 h 0.063 v 9.961 h -0.063 l -26.761,9.913 z m -11.494,-43.546 -15.739,50.52 h 9.347 l 15.739,-50.52 z"
       id="path213"
       inkscape:connector-curvature="0"
       style="clip-rule:evenodd;fill:#996dff;fill-rule:evenodd" />
    <path
       d="m 415.157,357.528 c 2.658,2.925 4.057,6.777 3.892,10.723 v 21.518 h -9.348 v -19.544 c 0.11,-2.178 -0.589,-4.316 -1.949,-6.015 -1.298,-1.509 -3.216,-2.342 -5.205,-2.256 -5.849,0 -8.781,4.057 -8.781,12.178 v 15.645 h -9.348 v -35.331 h 9.348 v 3.192 c 2.963,-2.885 6.989,-4.418 11.124,-4.245 3.852,-0.165 7.594,1.344 10.259,4.135 z"
       id="path215"
       inkscape:connector-curvature="0"
       style="clip-rule:evenodd;fill:#ffffff;fill-rule:evenodd" />
    <path
       d="m 430.943,339.753 v 50.519 h 9.348 v -50.519 z"
       id="path217"
       inkscape:connector-curvature="0"
       style="clip-rule:evenodd;fill:#ffffff;fill-rule:evenodd" />
    <path
       d="m 493.105,388.425 h -7.799 l -7.642,-20.81 -7.712,20.81 h -7.783 l -13.098,-35.394 h 9.984 l 7.359,21.164 7.587,-21.164 h 7.287 l 7.587,21.235 7.359,-21.235 h 9.984 z"
       id="path219"
       inkscape:connector-curvature="0"
       style="clip-rule:evenodd;fill:#ffffff;fill-rule:evenodd" />
    <path
       d="M 38.107,82.4857 C 48.6889,56.9272 70.0571,36.7854 101.598,22.6265 131.819,9.05712 170.113,1.50986 215.405,0.204811 308.252,-2.47604 420.336,21.2821 530.99,67.1239 c 7.956,3.294 15.842,6.6746 23.641,10.1416 l -11.03,0.0315 C 538.868,75.245 534.096,73.2246 529.284,71.2356 302.576,-22.665 84.0745,-16.8551 42.2187,84.1917 30.0959,113.453 34.0975,147.534 51.409,183.477 c 42.4455,88.193 164.986,187.574 326.057,254.288 15.582,6.455 31.18,12.461 46.754,18.019 94.49,33.743 187.817,50.842 267,48.554 44.71,-1.289 82.423,-8.703 112.109,-22.028 30.48,-13.68 51.069,-33.027 61.203,-57.501 9.143,-22.084 9.112,-46.911 1.101,-73.216 l 3.42,-3.86 c 9.387,28.994 9.261,55.464 -0.401,78.782 -10.59,25.559 -31.95,45.7 -63.5,59.859 -30.22,13.57 -68.507,21.117 -113.798,22.422 -4.733,0.134 -9.513,0.204 -14.34,0.204 -79.82,0 -172.533,-18.608 -265.813,-53.216 -11.816,-4.379 -23.632,-9.017 -35.441,-13.907 C 265.107,396.043 169.052,333.597 105.293,266.041 80.2223,239.477 61.2283,213.266 48.6417,187.88 45.6071,181.771 42.9498,175.718 40.6699,169.719 28.382,137.4 27.5172,108.052 38.107,82.4857 Z"
       id="path221"
       style="fill:url(#paint9_linear_6_544)"
       inkscape:connector-curvature="0" />
    <path
       d="M 38.107,82.4857 C 48.6889,56.9272 70.0571,36.7854 101.598,22.6265 131.819,9.05712 170.113,1.50986 215.405,0.204811 308.252,-2.47604 420.336,21.2821 530.99,67.1239 c 7.956,3.294 15.842,6.6746 23.641,10.1416 l -11.03,0.0315 C 538.868,75.245 534.096,73.2246 529.284,71.2356 302.576,-22.665 84.0745,-16.8551 42.2187,84.1917 30.0959,113.453 34.0975,147.534 51.409,183.477 c 42.4455,88.193 164.986,187.574 326.057,254.288 15.582,6.455 31.18,12.461 46.754,18.019 94.49,33.743 187.817,50.842 267,48.554 44.71,-1.289 82.423,-8.703 112.109,-22.028 30.48,-13.68 51.069,-33.027 61.203,-57.501 9.143,-22.084 9.112,-46.911 1.101,-73.216 l 3.42,-3.86 c 9.387,28.994 9.261,55.464 -0.401,78.782 -10.59,25.559 -31.95,45.7 -63.5,59.859 -30.22,13.57 -68.507,21.117 -113.798,22.422 -4.733,0.134 -9.513,0.204 -14.34,0.204 -79.82,0 -172.533,-18.608 -265.813,-53.216 -11.816,-4.379 -23.632,-9.017 -35.441,-13.907 C 265.107,396.043 169.052,333.597 105.293,266.041 80.2223,239.477 61.2283,213.266 48.6417,187.88 45.6071,181.771 42.9498,175.718 40.6699,169.719 28.382,137.4 27.5172,108.052 38.107,82.4857 Z"
       id="path223"
       style="fill:url(#paint10_radial_6_544)"
       inkscape:connector-curvature="0" />
    <path
       d="M 38.107,82.4857 C 48.6889,56.9272 70.0571,36.7854 101.598,22.6265 131.819,9.05712 170.113,1.50986 215.405,0.204811 308.252,-2.47604 420.336,21.2821 530.99,67.1239 c 7.956,3.294 15.842,6.6746 23.641,10.1416 l -11.03,0.0315 C 538.868,75.245 534.096,73.2246 529.284,71.2356 302.576,-22.665 84.0745,-16.8551 42.2187,84.1917 30.0959,113.453 34.0975,147.534 51.409,183.477 c 42.4455,88.193 164.986,187.574 326.057,254.288 15.582,6.455 31.18,12.461 46.754,18.019 94.49,33.743 187.817,50.842 267,48.554 44.71,-1.289 82.423,-8.703 112.109,-22.028 30.48,-13.68 51.069,-33.027 61.203,-57.501 9.143,-22.084 9.112,-46.911 1.101,-73.216 l 3.42,-3.86 c 9.387,28.994 9.261,55.464 -0.401,78.782 -10.59,25.559 -31.95,45.7 -63.5,59.859 -30.22,13.57 -68.507,21.117 -113.798,22.422 -4.733,0.134 -9.513,0.204 -14.34,0.204 -79.82,0 -172.533,-18.608 -265.813,-53.216 -11.816,-4.379 -23.632,-9.017 -35.441,-13.907 C 265.107,396.043 169.052,333.597 105.293,266.041 80.2223,239.477 61.2283,213.266 48.6417,187.88 45.6071,181.771 42.9498,175.718 40.6699,169.719 28.382,137.4 27.5172,108.052 38.107,82.4857 Z"
       id="path225"
       style="fill:url(#paint11_radial_6_544)"
       inkscape:connector-curvature="0" />
    <path
       d="M 38.107,82.4857 C 48.6889,56.9272 70.0571,36.7854 101.598,22.6265 131.819,9.05712 170.113,1.50986 215.405,0.204811 308.252,-2.47604 420.336,21.2821 530.99,67.1239 c 7.956,3.294 15.842,6.6746 23.641,10.1416 l -11.03,0.0315 C 538.868,75.245 534.096,73.2246 529.284,71.2356 302.576,-22.665 84.0745,-16.8551 42.2187,84.1917 30.0959,113.453 34.0975,147.534 51.409,183.477 c 42.4455,88.193 164.986,187.574 326.057,254.288 15.582,6.455 31.18,12.461 46.754,18.019 94.49,33.743 187.817,50.842 267,48.554 44.71,-1.289 82.423,-8.703 112.109,-22.028 30.48,-13.68 51.069,-33.027 61.203,-57.501 9.143,-22.084 9.112,-46.911 1.101,-73.216 l 3.42,-3.86 c 9.387,28.994 9.261,55.464 -0.401,78.782 -10.59,25.559 -31.95,45.7 -63.5,59.859 -30.22,13.57 -68.507,21.117 -113.798,22.422 -4.733,0.134 -9.513,0.204 -14.34,0.204 -79.82,0 -172.533,-18.608 -265.813,-53.216 -11.816,-4.379 -23.632,-9.017 -35.441,-13.907 C 265.107,396.043 169.052,333.597 105.293,266.041 80.2223,239.477 61.2283,213.266 48.6417,187.88 45.6071,181.771 42.9498,175.718 40.6699,169.719 28.382,137.4 27.5172,108.052 38.107,82.4857 Z"
       id="path227"
       style="fill:url(#paint12_radial_6_544)"
       inkscape:connector-curvature="0" />
    <path
       d="M 868.651,82.4857 C 858.069,56.9272 836.701,36.7854 805.16,22.6265 774.939,9.05712 736.645,1.50986 691.353,0.204811 598.506,-2.47604 486.422,21.2821 375.768,67.1239 c -7.956,3.294 -15.842,6.6746 -23.64,10.1416 l 11.03,0.0315 c 4.732,-2.052 9.504,-4.0724 14.316,-6.0614 226.708,-93.9006 445.21,-88.0907 487.066,12.9561 12.122,29.2613 8.121,63.3423 -9.191,99.2853 -42.445,88.193 -164.986,187.574 -326.057,254.288 -15.582,6.455 -31.18,12.461 -46.754,18.019 -94.49,33.743 -187.817,50.842 -267,48.554 C 170.828,503.049 133.115,495.635 103.43,482.31 72.9496,468.63 52.3597,449.283 42.226,424.809 33.0828,402.725 33.1142,377.898 41.1253,351.593 l -3.4198,-3.86 c -9.387,28.994 -9.2612,55.464 0.4009,78.782 10.5898,25.559 31.9501,45.7 63.4996,59.859 30.22,13.57 68.507,21.117 113.798,22.422 4.733,0.134 9.513,0.204 14.34,0.204 79.82,0 172.534,-18.608 265.813,-53.216 11.816,-4.379 23.632,-9.017 35.441,-13.907 110.653,-45.834 206.708,-108.28 270.467,-175.836 25.071,-26.564 44.065,-52.775 56.651,-78.161 3.035,-6.109 5.692,-12.162 7.972,-18.161 12.288,-32.319 13.153,-61.667 2.563,-87.2333 z"
       id="path229"
       style="fill:url(#paint13_linear_6_544)"
       inkscape:connector-curvature="0" />
    <path
       d="M 868.651,82.4857 C 858.069,56.9272 836.701,36.7854 805.16,22.6265 774.939,9.05712 736.645,1.50986 691.353,0.204811 598.506,-2.47604 486.422,21.2821 375.768,67.1239 c -7.956,3.294 -15.842,6.6746 -23.64,10.1416 l 11.03,0.0315 c 4.732,-2.052 9.504,-4.0724 14.316,-6.0614 226.708,-93.9006 445.21,-88.0907 487.066,12.9561 12.122,29.2613 8.121,63.3423 -9.191,99.2853 -42.445,88.193 -164.986,187.574 -326.057,254.288 -15.582,6.455 -31.18,12.461 -46.754,18.019 -94.49,33.743 -187.817,50.842 -267,48.554 C 170.828,503.049 133.115,495.635 103.43,482.31 72.9496,468.63 52.3597,449.283 42.226,424.809 33.0828,402.725 33.1142,377.898 41.1253,351.593 l -3.4198,-3.86 c -9.387,28.994 -9.2612,55.464 0.4009,78.782 10.5898,25.559 31.9501,45.7 63.4996,59.859 30.22,13.57 68.507,21.117 113.798,22.422 4.733,0.134 9.513,0.204 14.34,0.204 79.82,0 172.534,-18.608 265.813,-53.216 11.816,-4.379 23.632,-9.017 35.441,-13.907 110.653,-45.834 206.708,-108.28 270.467,-175.836 25.071,-26.564 44.065,-52.775 56.651,-78.161 3.035,-6.109 5.692,-12.162 7.972,-18.161 12.288,-32.319 13.153,-61.667 2.563,-87.2333 z"
       id="path231"
       style="fill:url(#paint14_radial_6_544)"
       inkscape:connector-curvature="0" />
    <path
       d="M 868.651,82.4857 C 858.069,56.9272 836.701,36.7854 805.16,22.6265 774.939,9.05712 736.645,1.50986 691.353,0.204811 598.506,-2.47604 486.422,21.2821 375.768,67.1239 c -7.956,3.294 -15.842,6.6746 -23.64,10.1416 l 11.03,0.0315 c 4.732,-2.052 9.504,-4.0724 14.316,-6.0614 226.708,-93.9006 445.21,-88.0907 487.066,12.9561 12.122,29.2613 8.121,63.3423 -9.191,99.2853 -42.445,88.193 -164.986,187.574 -326.057,254.288 -15.582,6.455 -31.18,12.461 -46.754,18.019 -94.49,33.743 -187.817,50.842 -267,48.554 C 170.828,503.049 133.115,495.635 103.43,482.31 72.9496,468.63 52.3597,449.283 42.226,424.809 33.0828,402.725 33.1142,377.898 41.1253,351.593 l -3.4198,-3.86 c -9.387,28.994 -9.2612,55.464 0.4009,78.782 10.5898,25.559 31.9501,45.7 63.4996,59.859 30.22,13.57 68.507,21.117 113.798,22.422 4.733,0.134 9.513,0.204 14.34,0.204 79.82,0 172.534,-18.608 265.813,-53.216 11.816,-4.379 23.632,-9.017 35.441,-13.907 110.653,-45.834 206.708,-108.28 270.467,-175.836 25.071,-26.564 44.065,-52.775 56.651,-78.161 3.035,-6.109 5.692,-12.162 7.972,-18.161 12.288,-32.319 13.153,-61.667 2.563,-87.2333 z"
       id="path233"
       style="fill:url(#paint15_radial_6_544)"
       inkscape:connector-curvature="0" />
  </g>
  <defs
     id="defs326">
    <linearGradient
       id="paint0_linear_6_544"
       x1="453.229"
       y1="237.817"
       x2="453.229"
       y2="431.216"
       gradientUnits="userSpaceOnUse">
      <stop
         stop-color="#D9D9D9"
         id="stop237" />
      <stop
         offset="1"
         stop-color="#D9D9D9"
         stop-opacity="0"
         id="stop239" />
    </linearGradient>
    <linearGradient
       id="paint1_linear_6_544"
       x1="0"
       y1="254.5"
       x2="906.764"
       y2="254.5"
       gradientUnits="userSpaceOnUse">
      <stop
         stop-color="#996DFF"
         id="stop242" />
      <stop
         offset="0.5"
         stop-color="#35E8B3"
         id="stop244" />
      <stop
         offset="1"
         stop-color="#E2D45C"
         id="stop246" />
    </linearGradient>
    <linearGradient
       id="paint2_linear_6_544"
       x1="453.378"
       y1="292.393"
       x2="453.378"
       y2="433.181"
       gradientUnits="userSpaceOnUse">
      <stop
         stop-color="#28203E"
         id="stop249" />
      <stop
         offset="1"
         stop-color="#121214"
         stop-opacity="0"
         id="stop251" />
    </linearGradient>
    <linearGradient
       id="paint3_linear_6_544"
       x1="91.5903"
       y1="194.105"
       x2="91.5903"
       y2="249.585"
       gradientUnits="userSpaceOnUse">
      <stop
         stop-color="#A9A9AD"
         id="stop254" />
      <stop
         offset="1"
         stop-color="#A9A9AD"
         stop-opacity="0"
         id="stop256" />
    </linearGradient>
    <linearGradient
       id="paint4_linear_6_544"
       x1="197.236"
       y1="194.104"
       x2="197.236"
       y2="249.584"
       gradientUnits="userSpaceOnUse">
      <stop
         stop-color="#A9A9AD"
         id="stop259" />
      <stop
         offset="1"
         stop-color="#A9A9AD"
         stop-opacity="0"
         id="stop261" />
    </linearGradient>
    <linearGradient
       id="paint5_linear_6_544"
       x1="318.749"
       y1="194.104"
       x2="318.749"
       y2="249.585"
       gradientUnits="userSpaceOnUse">
      <stop
         stop-color="#A9A9AD"
         id="stop264" />
      <stop
         offset="1"
         stop-color="#A9A9AD"
         stop-opacity="0"
         id="stop266" />
    </linearGradient>
    <linearGradient
       id="paint6_linear_6_544"
       x1="445.863"
       y1="194.105"
       x2="445.863"
       y2="249.585"
       gradientUnits="userSpaceOnUse">
      <stop
         stop-color="#A9A9AD"
         id="stop269" />
      <stop
         offset="1"
         stop-color="#A9A9AD"
         stop-opacity="0"
         id="stop271" />
    </linearGradient>
    <linearGradient
       id="paint7_linear_6_544"
       x1="570.598"
       y1="194.104"
       x2="570.598"
       y2="249.585"
       gradientUnits="userSpaceOnUse">
      <stop
         stop-color="#A9A9AD"
         id="stop274" />
      <stop
         offset="1"
         stop-color="#A9A9AD"
         stop-opacity="0"
         id="stop276" />
    </linearGradient>
    <linearGradient
       id="paint8_linear_6_544"
       x1="676.316"
       y1="194.104"
       x2="676.316"
       y2="249.584"
       gradientUnits="userSpaceOnUse">
      <stop
         stop-color="#A9A9AD"
         id="stop279" />
      <stop
         offset="1"
         stop-color="#A9A9AD"
         stop-opacity="0"
         id="stop281" />
    </linearGradient>
    <linearGradient
       id="paint9_linear_6_544"
       x1="822.731"
       y1="364.392"
       x2="210.302"
       y2="367.536"
       gradientUnits="userSpaceOnUse">
      <stop
         stop-color="#996DFF"
         id="stop284" />
      <stop
         offset="0.5"
         stop-color="#35E8B3"
         id="stop286" />
      <stop
         offset="1"
         stop-color="#E2D45C"
         id="stop288" />
    </linearGradient>
    <radialGradient
       id="paint10_radial_6_544"
       cx="0"
       cy="0"
       r="1"
       gradientUnits="userSpaceOnUse"
       gradientTransform="matrix(396.21058,111.82581,-185.69556,657.93886,447.786,465.138)">
      <stop
         stop-color="#171226"
         id="stop291" />
      <stop
         offset="1"
         stop-color="#171226"
         stop-opacity="0"
         id="stop293" />
    </radialGradient>
    <radialGradient
       id="paint11_radial_6_544"
       cx="0"
       cy="0"
       r="1"
       gradientUnits="userSpaceOnUse"
       gradientTransform="matrix(-85.315238,-36.150923,60.031623,-141.67307,553.346,79.5316)">
      <stop
         stop-color="#261945"
         id="stop296" />
      <stop
         offset="1"
         stop-color="#261945"
         stop-opacity="0"
         id="stop298" />
    </radialGradient>
    <radialGradient
       id="paint12_radial_6_544"
       cx="0"
       cy="0"
       r="1"
       gradientUnits="userSpaceOnUse"
       gradientTransform="matrix(24.100439,102.18541,-169.68741,40.020792,870.025,341.262)">
      <stop
         stop-color="#191326"
         id="stop301" />
      <stop
         offset="1"
         stop-color="#191326"
         stop-opacity="0"
         id="stop303" />
    </radialGradient>
    <linearGradient
       id="paint13_linear_6_544"
       x1="476.706"
       y1="56.3952"
       x2="613.596"
       y2="403.441"
       gradientUnits="userSpaceOnUse">
      <stop
         stop-color="#996DFF"
         id="stop306" />
      <stop
         offset="0.5"
         stop-color="#35E8B3"
         id="stop308" />
      <stop
         offset="1"
         stop-color="#E2D45C"
         id="stop310" />
    </linearGradient>
    <radialGradient
       id="paint14_radial_6_544"
       cx="0"
       cy="0"
       r="1"
       gradientUnits="userSpaceOnUse"
       gradientTransform="matrix(197.62338,-69.409305,115.25945,328.16872,343.672,87.2437)">
      <stop
         stop-color="#171225"
         id="stop313" />
      <stop
         offset="1"
         stop-color="#171225"
         stop-opacity="0"
         id="stop315" />
    </radialGradient>
    <radialGradient
       id="paint15_radial_6_544"
       cx="0"
       cy="0"
       r="1"
       gradientUnits="userSpaceOnUse"
       gradientTransform="matrix(53.984969,130.14232,-216.11135,89.646199,38.0789,346.082)">
      <stop
         stop-color="#191327"
         id="stop318" />
      <stop
         offset="1"
         stop-color="#191327"
         stop-opacity="0"
         id="stop320" />
    </radialGradient>
    <clipPath
       id="clip0_6_544">
      <rect
         width="906.764"
         height="509"
         fill="white"
         id="rect323" />
    </clipPath>
  </defs>
</svg>
